<svg width="21" height="24" viewBox="0 0 21 24" fill="none" xmlns="http://www.w3.org/2000/svg">
<path d="M11.6245 4.99687C12.5104 4.575 13.1245 3.67031 13.1245 2.625C13.1245 1.17656 11.9479 0 10.4995 0C9.05105 0 7.87449 1.17656 7.87449 2.625C7.87449 3.67031 8.48855 4.575 9.37449 4.99687V9.62812C9.24324 9.68906 9.11667 9.76406 8.99949 9.84844L5.2448 7.70156C5.3198 6.72656 4.84167 5.75156 3.93699 5.22656C2.68074 4.5 1.07761 4.93125 0.351048 6.1875C-0.375515 7.44375 0.0557356 9.04688 1.31199 9.77344C1.37292 9.81094 1.43386 9.84375 1.49949 9.87188V14.1281C1.43855 14.1562 1.37292 14.1891 1.31199 14.2266C0.0557356 14.9531 -0.375515 16.5562 0.351048 17.8125C1.07761 19.0688 2.68074 19.5 3.93699 18.7734C4.84167 18.2531 5.31511 17.2734 5.24011 16.2984L7.6073 14.9437C7.06824 14.4187 6.67449 13.7438 6.49167 12.9891L4.12449 14.3484C4.00261 14.2641 3.88074 14.1937 3.74949 14.1281V9.87188C3.88074 9.81094 4.0073 9.73594 4.12449 9.65156L7.87917 11.7984C7.87449 11.8641 7.8698 11.9297 7.8698 12C7.8698 13.0453 8.48386 13.95 9.3698 14.3719V19.0031C8.48386 19.425 7.8698 20.3297 7.8698 21.375C7.8698 22.8234 9.04636 24 10.4948 24C11.9432 24 13.1198 22.8234 13.1198 21.375C13.1198 20.3297 12.5057 19.425 11.6198 19.0031V14.3719C11.751 14.3109 11.8776 14.2359 11.9948 14.1516L15.7495 16.2984C15.6745 17.2734 16.1526 18.2484 17.0526 18.7734C18.3089 19.5 19.912 19.0688 20.6385 17.8125C21.3651 16.5562 20.9339 14.9531 19.6776 14.2266C19.6167 14.1891 19.551 14.1562 19.4901 14.1281V9.87188C19.5557 9.84375 19.6167 9.81094 19.6776 9.77344C20.9339 9.04688 21.3651 7.44375 20.6385 6.1875C19.912 4.93125 18.3182 4.5 17.062 5.22656C16.1573 5.74687 15.6839 6.72656 15.7589 7.70156L13.387 9.05625C13.926 9.58125 14.3198 10.2562 14.5026 11.0109L16.8745 9.65156C16.9964 9.73594 17.1182 9.80625 17.2495 9.87188V14.1281C17.1182 14.1891 16.9917 14.2641 16.8745 14.3438L13.1198 12.1969C13.1245 12.1313 13.1292 12.0656 13.1292 11.9953C13.1292 10.95 12.5151 10.0453 11.6292 9.62344V4.99219L11.6245 4.99687Z" fill="#43A047"/>
</svg>
